# xmcd CD database file
# Copyright (C) 1995-1998 Ti Kan
#
# Track frame offsets:
#	150
#	15495
#	29208
#	41954
#	53107
#	65933
#	84611
#	97724
#	112565
#	126265
#	140282
#	159764
#	169894
#	182040
#	195825
#	210385
#
# Disc length: 2954 seconds
#
# Revision: 2
# Processed by: cddbd v1.5.1PL2 Copyright (c) Steve Scherf et al.
# Submitted via: CDex 1.30Release
#
DISCID=cf0b8810
DTITLE=Razzy Bailey - Razzy Bailey
DYEAR=1999
DGENRE=Country
TTITLE0=Your Cheating Heart
TTITLE1=Rockin' In The Parking Lot
TTITLE2=I'm Surviving
TTITLE3=9,999,999 Tears
TTITLE4=Don't Talk To The Baby
TTITLE5=I Keep Coming Back
TTITLE6=Poor Boy
TTITLE7=After The Great Depression
TTITLE8=Scratch My Back
TTITLE9=I Hate Hate
TTITLE10=Memories
TTITLE11=Quarter To Three
TTITLE12=Old Nohomer
TTITLE13=She's Anybody's Darlin'
TTITLE14=Sometimes Late At Night
TTITLE15=She Wanted To
EXTD=YEAR: 1999 ID3G:   2
EXTT0=
EXTT1=
EXTT2=
EXTT3=
EXTT4=
EXTT5=
EXTT6=
EXTT7=
EXTT8=
EXTT9=
EXTT10=
EXTT11=
EXTT12=
EXTT13=
EXTT14=
EXTT15=
PLAYORDER=
